<svg xmlns="http://www.w3.org/2000/svg" viewBox="0 0 3216 2142" width="3216" height="2142">
<g transform="translate(0.000000,2142.000000) scale(0.100000,-0.100000)" fill="#376CB4"><path d="M15315 19033 c-528 -43 -1441 -228 -1875 -378 -52 -18 -162 -54 -245
-80 -82 -26 -217 -75 -300 -110 -82 -35 -172 -69 -200 -75 -52 -12 -696 -330
-913 -452 -957 -536 -1872 -1303 -2466 -2067 -33 -42 -92 -116 -131 -166 -40
-49 -82 -108 -93 -130 -11 -22 -44 -69 -73 -105 -235 -292 -688 -1115 -834
-1515 -18 -49 -55 -144 -83 -210 -266 -647 -431 -1414 -503 -2342 -26 -331 47
-1053 156 -1559 64 -297 269 -938 389 -1218 114 -264 336 -683 471 -886 46
-69 90 -139 99 -156 50 -102 603 -764 637 -764 18 0 8 16 -73 125 -160 216
-306 452 -433 703 -37 73 -78 140 -90 148 -13 8 -25 29 -28 47 -3 18 -55 147
-117 287 -250 569 -417 1205 -464 1765 -49 578 -45 1351 10 1780 47 377 230
1114 360 1450 25 66 58 156 74 200 67 195 302 692 453 960 164 293 470 769
593 925 33 41 89 113 124 160 147 195 581 673 792 871 425 399 655 580 1163
918 958 637 2026 1077 3140 1295 359 70 804 138 1020 156 356 29 1185 21 1463
-15 990 -129 1759 -334 2465 -659 243 -112 576 -277 614 -304 16 -11 65 -38
110 -61 185 -93 130 -37 -222 223 -163 119 -200 141 -595 346 -337 175 -433
221 -615 295 -71 29 -185 76 -252 104 -66 28 -165 63 -220 77 -54 15 -114 34
-134 44 -36 19 -237 84 -389 127 -125 34 -681 148 -871 177 -403 62 -663 76
-1359 74 -283 -1 -533 -3 -555 -5z" fill-rule="evenodd"/></g>
<g transform="translate(0.000000,2142.000000) scale(0.100000,-0.100000)" fill="#ED9B3D"><path d="M14020 20349 c-231 -9 -428 -34 -789 -100 -204 -37 -635 -125 -716
-145 -101 -26 -743 -220 -870 -264 -425 -147 -1163 -494 -1490 -700 -49 -32
-122 -73 -160 -93 -129 -64 -422 -266 -780 -536 -581 -438 -1255 -1128 -1618
-1655 -45 -65 -112 -156 -148 -202 -36 -47 -86 -121 -111 -167 -26 -45 -60
-99 -77 -121 -17 -21 -31 -48 -31 -59 0 -12 -16 -37 -34 -57 -83 -85 -716
-1422 -716 -1512 0 -8 -23 -86 -50 -174 -117 -370 -154 -512 -220 -844 -128
-636 -135 -715 -135 -1420 1 -827 27 -1074 190 -1755 83 -349 365 -1101 543
-1448 37 -72 75 -156 85 -185 13 -37 25 -56 41 -62 13 -5 26 -19 30 -33 8 -32
184 -325 305 -507 158 -237 407 -548 744 -930 253 -287 287 -319 287 -272 0
19 -13 37 -111 158 -30 38 -78 103 -107 145 -28 41 -65 85 -81 97 -31 23 -268
364 -382 549 -161 264 -493 906 -533 1033 -13 41 -49 135 -80 208 -163 390
-340 1073 -401 1547 -66 517 -74 1272 -19 1805 91 890 388 1823 868 2728 158
299 444 762 590 957 46 61 122 163 170 227 47 64 99 126 114 138 15 12 45 48
67 80 98 143 782 837 1030 1043 481 401 1047 783 1589 1070 276 147 694 341
811 377 22 7 85 32 140 55 172 74 773 269 1048 340 178 46 604 139 752 164
205 35 584 91 720 106 499 57 1582 30 2105 -51 717 -111 1513 -316 1874 -483
44 -21 103 -43 131 -50 121 -30 1051 -484 1110 -541 17 -17 38 -30 47 -30 9 0
43 -24 75 -53 69 -63 113 -97 124 -97 24 0 4 43 -33 73 -128 103 -592 414
-703 470 -39 19 -158 85 -265 147 -380 218 -897 446 -1410 622 -422 144 -1451
367 -1788 388 -420 25 -1350 36 -1732 19z" fill-rule="evenodd"/></g>
<g transform="translate(0.000000,2142.000000) scale(0.100000,-0.100000)" fill="#80A43C"><path d="M 14760.0,19700.0 C 14713.0,19696.0 14666.0,19690.0 14655.0,19687.0 C 14644.0,19683.0 14507.0,19665.0 14350.0,19645.0 C 13737.0,19569.0 13395.0,19498.0 12865.0,19338.0 C 11999.0,19077.0 11427.0,18817.0 10650.0,18332.0 C 10153.0,18023.0 9915.0,17845.0 9465.0,17451.0 C 9014.0,17054.0 8546.0,16530.0 8249.0,16087.0 C 8193.0,16003.0 8132.0,15917.0 8114.0,15894.0 C 8069.0,15838.0 7943.0,15631.0 7822.0,15413.0 C 7573.0,14966.0 7389.0,14557.0 7227.0,14085.0 C 7197.0,13997.0 7162.0,13901.0 7151.0,13871.0 C 7104.0,13754.0 6934.0,13034.0 6900.0,12813.0 C 6808.0,12206.0 6808.0,11195.0 6901.0,10652.0 C 6922.0,10527.0 7073.0,9918.0 7127.0,9740.0 C 7285.0,9217.0 7574.0,8605.0 7928.0,8047.0 C 8113.0,7754.0 8593.0,7153.0 8695.0,7086.0 C 8767.0,7039.0 8721.0,7131.0 8597.0,7283.0 C 8541.0,7352.0 8397.0,7570.0 8275.0,7770.0 C 7737.0,8656.0 7394.0,9735.0 7310.0,10810.0 C 7287.0,11105.0 7299.0,11701.0 7335.0,12065.0 C 7384.0,12551.0 7544.0,13224.0 7735.0,13752.0 C 7871.0,14127.0 8229.0,14885.0 8295.0,14940.0 C 8303.0,14947.0 8310.0,14960.0 8310.0,14969.0 C 8310.0,14979.0 8357.0,15065.0 8414.0,15161.0 C 8889.0,15954.0 9639.0,16800.0 10370.0,17365.0 C 10433.0,17414.0 10514.0,17478.0 10549.0,17507.0 C 10584.0,17535.0 10629.0,17567.0 10649.0,17576.0 C 10669.0,17586.0 10703.0,17608.0 10725.0,17627.0 C 10838.0,17721.0 11284.0,18008.0 11545.0,18154.0 C 11824.0,18311.0 12382.0,18575.0 12575.0,18643.0 C 12630.0,18662.0 12731.0,18700.0 12800.0,18728.0 C 13029.0,18819.0 13618.0,19003.0 13860.0,19058.0 C 14286.0,19157.0 14817.0,19241.0 15200.0,19272.0 C 15500.0,19296.0 16595.0,19282.0 16960.0,19249.0 C 17518.0,19200.0 18448.0,18970.0 18980.0,18750.0 C 19049.0,18722.0 19163.0,18676.0 19234.0,18649.0 C 19435.0,18572.0 19905.0,18333.0 20264.0,18126.0 C 20369.0,18065.0 20400.0,18061.0 20336.0,18116.0 C 20299.0,18148.0 20276.0,18164.0 20125.0,18264.0 C 20087.0,18290.0 20024.0,18333.0 19985.0,18361.0 C 19473.0,18730.0 18602.0,19140.0 17828.0,19375.0 C 17326.0,19528.0 16678.0,19650.0 16215.0,19680.0 C 15815.0,19705.0 14967.0,19717.0 14760.0,19700.0 M 19977.0,13640.0 L 19578.0,13635.0 L 19555.0,13609.0 C 19543.0,13594.0 19518.0,13547.0 19500.0,13504.0 C 19483.0,13460.0 19443.0,13364.0 19413.0,13290.0 C 19227.0,12838.0 19007.0,12491.0 18691.0,12146.0 C 18641.0,12092.0 18613.0,12053.0 18618.0,12048.0 C 18624.0,12042.0 19072.0,12035.0 19701.0,12029.0 C 20817.0,12020.0 21442.0,12006.0 21545.0,11989.0 C 21677.0,11968.0 21834.0,11860.0 21885.0,11757.0 C 21958.0,11606.0 21959.0,11349.0 21886.0,11156.0 C 21808.0,10949.0 21644.0,10769.0 21431.0,10656.0 C 21280.0,10577.0 21189.0,10568.0 20340.0,10550.0 C 18917.0,10520.0 18476.0,10508.0 18226.0,10490.0 C 17970.0,10471.0 17577.0,10330.0 17392.0,10190.0 C 17363.0,10168.0 17324.0,10144.0 17305.0,10136.0 C 17262.0,10118.0 17039.0,9902.0 16953.0,9795.0 C 16791.0,9593.0 16687.0,9385.0 16527.0,8935.0 C 16314.0,8339.0 16224.0,8092.0 16174.0,7968.0 C 16144.0,7893.0 16109.0,7789.0 16095.0,7736.0 C 16081.0,7684.0 16049.0,7593.0 16024.0,7533.0 C 15999.0,7474.0 15939.0,7308.0 15891.0,7165.0 C 15842.0,7022.0 15781.0,6851.0 15755.0,6785.0 C 15686.0,6611.0 15580.0,6303.0 15580.0,6275.0 C 15580.0,6253.0 15583.0,6252.0 15703.0,6245.0 C 15770.0,6242.0 16196.0,6240.0 16650.0,6242.0 L 17475.0,6245.0 L 17606.0,6595.0 C 17865.0,7289.0 17989.0,7628.0 18053.0,7815.0 C 18131.0,8044.0 18276.0,8424.0 18315.0,8500.0 C 18444.0,8757.0 18575.0,8849.0 18855.0,8879.0 C 18905.0,8884.0 18968.0,8892.0 18995.0,8895.0 C 19023.0,8898.0 19484.0,8905.0 20020.0,8910.0 C 21229.0,8920.0 21270.0,8924.0 21653.0,9051.0 C 22065.0,9187.0 22412.0,9406.0 22752.0,9743.0 C 23040.0,10028.0 23355.0,10597.0 23465.0,11028.0 C 23555.0,11383.0 23595.0,11849.0 23560.0,12125.0 C 23495.0,12644.0 23266.0,13035.0 22875.0,13296.0 C 22652.0,13444.0 22258.0,13594.0 22045.0,13610.0 C 21764.0,13632.0 20644.0,13648.0 19977.0,13640.0 M 10428.5,1810.0 C 10238.5,1787.0 10032.5,1648.0 9980.5,1507.0 C 9920.5,1347.0 9929.5,1095.0 10000.5,956.0 C 10052.5,854.0 10165.5,773.0 10308.5,735.0 C 10395.5,712.0 10723.5,703.0 10840.5,719.0 C 11191.5,770.0 11334.5,943.0 11315.5,1295.0 C 11302.5,1518.0 11214.5,1661.0 11031.5,1754.0 C 10938.5,1801.0 10611.5,1831.0 10428.5,1810.0 M 10780.5,1636.0 C 10916.5,1607.0 11031.5,1521.0 11081.5,1413.0 C 11112.5,1343.0 11111.5,1189.0 11079.5,1106.0 C 10978.5,850.0 10483.5,792.0 10246.5,1009.0 C 10174.5,1075.0 10164.5,1114.0 10170.5,1291.0 C 10175.5,1434.0 10190.5,1474.0 10259.5,1534.0 C 10375.5,1633.0 10592.5,1675.0 10780.5,1636.0 M 7610.5,1779.0 C 7589.5,1723.0 7575.5,1457.0 7574.5,1100.0 L 7573.5,725.0 L 7667.5,722.0 C 7796.5,718.0 7803.5,724.0 7811.5,832.0 C 7814.5,878.0 7825.5,937.0 7834.5,964.0 C 7858.5,1035.0 7874.5,1039.0 8173.5,1055.0 C 8543.5,1076.0 8594.5,1086.0 8663.5,1156.0 C 8731.5,1226.0 8753.5,1288.0 8753.5,1415.0 C 8753.5,1549.0 8726.5,1621.0 8648.5,1694.0 C 8552.5,1783.0 8517.5,1789.0 8006.5,1797.0 L 7619.5,1803.0 L 7610.5,1779.0 M 8348.5,1615.0 C 8490.5,1582.0 8534.5,1531.0 8526.5,1412.0 C 8517.5,1286.0 8482.5,1256.0 8312.5,1224.0 C 8220.5,1207.0 7851.5,1201.0 7827.5,1216.0 C 7818.5,1221.0 7817.5,1270.0 7821.5,1393.0 C 7827.5,1586.0 7834.5,1605.0 7904.5,1627.0 C 7962.5,1646.0 8252.5,1638.0 8348.5,1615.0 M 12583.5,1788.0 C 12580.5,1781.0 12579.5,1539.0 12580.5,1250.0 L 12583.5,725.0 L 13073.5,725.0 L 13563.5,725.0 L 13563.5,810.0 L 13563.5,895.0 L 13178.5,900.0 L 12793.5,905.0 L 12788.5,1350.0 L 12783.5,1795.0 L 12685.5,1798.0 C 12613.5,1800.0 12586.5,1797.0 12583.5,1788.0 M 14316.5,1793.0 C 14287.5,1786.0 14295.5,1765.0 14357.5,1688.0 C 14803.5,1139.0 14771.5,1195.0 14793.5,918.0 C 14801.5,819.0 14811.5,734.0 14814.5,729.0 C 14821.5,717.0 15015.5,718.0 15023.5,730.0 C 15026.5,735.0 15034.5,797.0 15039.5,867.0 C 15061.5,1148.0 15087.5,1203.0 15309.5,1451.0 C 15425.5,1582.0 15568.5,1762.0 15568.5,1778.0 C 15568.5,1791.0 15436.5,1798.0 15389.5,1788.0 C 15341.5,1779.0 15303.5,1745.0 15111.5,1539.0 C 15017.5,1438.0 14933.5,1354.0 14925.5,1352.0 C 14916.5,1350.0 14858.5,1409.0 14785.5,1492.0 C 14625.5,1675.0 14533.5,1765.0 14486.5,1785.0 C 14451.5,1799.0 14356.5,1804.0 14316.5,1793.0 M 16789.5,1790.0 C 16717.5,1779.0 16707.5,1767.0 16698.5,1673.0 C 16685.5,1547.0 16677.5,1027.0 16685.5,870.0 L 16693.5,725.0 L 16808.5,725.0 L 16923.5,725.0 L 16928.5,885.0 L 16933.5,1045.0 L 17208.5,1051.0 C 17603.5,1060.0 17666.5,1076.0 17794.5,1204.0 C 17876.5,1286.0 17894.5,1331.0 17886.5,1433.0 C 17868.5,1643.0 17729.5,1766.0 17479.5,1790.0 C 17365.5,1801.0 16866.5,1801.0 16789.5,1790.0 M 17465.5,1616.0 C 17562.5,1596.0 17576.5,1587.0 17605.5,1523.0 C 17638.5,1450.0 17636.5,1345.0 17599.5,1306.0 C 17545.5,1248.0 17392.5,1209.0 17223.5,1208.0 C 17109.5,1208.0 16949.5,1225.0 16935.5,1239.0 C 16930.5,1244.0 16928.5,1324.0 16930.5,1418.0 C 16933.5,1614.0 16934.5,1616.0 17014.5,1630.0 C 17082.5,1643.0 17378.5,1633.0 17465.5,1616.0 M 19764.055,906.54 L 19348.785,906.54 L 19282.215,710.0 L 18998.5,710.0 L 19401.09,1822.67 L 19714.92,1822.67 L 20117.51,710.0 L 19830.625,710.0 L 19764.055,906.54 M 19694.315,1115.76 L 19556.42,1523.105 L 19420.11,1115.76 L 19694.315,1115.76 M 21787.405000000002,1835.35 Q 21985.530000000002,1835.35 22126.595,1730.74 Q 22267.66,1626.13 22315.210000000003,1445.44 L 22017.230000000003,1445.44 Q 21983.945,1515.1799999999998 21922.9225,1551.635 Q 21861.9,1588.0900000000001 21784.235,1588.0900000000001 Q 21659.02,1588.0900000000001 21581.355000000003,1500.915 Q 21503.690000000002,1413.74 21503.690000000002,1267.92 Q 21503.690000000002,1122.1 21581.355000000003,1034.925 Q 21659.02,947.75 21784.235,947.75 Q 21861.9,947.75 21922.9225,984.2049999999999 Q 21983.945,1020.66 22017.230000000003,1090.4 L 22315.210000000003,1090.4 Q 22267.66,909.71 22126.595,805.8925 Q 21985.530000000002,702.075 21787.405000000002,702.075 Q 21625.735,702.075 21498.1425,774.1925 Q 21370.550000000003,846.31 21299.225000000002,974.6949999999999 Q 21227.9,1103.08 21227.9,1267.92 Q 21227.9,1432.76 21299.225000000002,1561.9375 Q 21370.550000000003,1691.115 21498.1425,1763.2325 Q 21625.735,1835.35 21787.405000000002,1835.35 M 24070.295000000002,710.0 L 23696.235,1201.35 L 23696.235,710.0 L 23425.2,710.0 L 23425.2,1822.67 L 23696.235,1822.67 L 23696.235,1334.49 L 24067.125,1822.67 L 24385.71,1822.67 L 23954.59,1277.4299999999998 L 24401.56,710.0 L 24070.295000000002,710.0" fill-rule="evenodd"/></g>
<g transform="translate(0.000000,2142.000000) scale(0.100000,-0.100000)" fill="#DB3D2B"><path d="M13460 21100 c-269 -15 -851 -88 -1170 -146 -673 -122 -1491 -369
-2005 -604 -723 -330 -1202 -609 -1730 -1008 -466 -352 -1299 -1152 -1457
-1402 -20 -30 -86 -118 -147 -195 -371 -464 -895 -1382 -1111 -1945 -241 -631
-424 -1345 -494 -1930 -47 -386 -51 -468 -51 -925 0 -519 23 -846 85 -1230 65
-406 284 -1233 354 -1340 7 -11 21 -50 30 -85 51 -201 428 -982 604 -1250 31
-47 69 -111 86 -142 35 -64 256 -385 340 -493 31 -38 76 -100 101 -136 107
-157 601 -696 620 -677 3 3 -52 75 -122 159 -193 232 -398 520 -560 788 -69
113 -302 573 -393 776 -39 88 -98 219 -131 292 -33 72 -70 175 -83 227 -13 52
-35 114 -48 138 -14 24 -28 67 -31 95 -3 29 -17 72 -31 95 -85 146 -232 866
-312 1528 -77 639 -49 1149 112 2038 148 822 564 1917 991 2607 205 333 456
711 520 785 21 25 77 95 123 155 282 368 707 816 1073 1129 399 342 954 746
1176 856 35 18 116 65 180 105 272 170 631 348 1125 559 467 200 1257 430
1836 535 596 109 628 113 1035 130 646 29 1257 23 1653 -14 402 -39 1178 -180
1313 -240 31 -14 70 -25 86 -25 93 0 798 -238 1178 -397 72 -30 280 -127 463
-215 183 -88 335 -158 339 -155 14 14 -11 39 -84 82 -43 25 -150 89 -237 141
-328 196 -839 452 -1241 624 -256 109 -841 310 -1085 374 -544 141 -595 153
-894 201 -634 103 -1525 163 -2006 135z M8911 3683 c-302 -486 -516 -872 -495 -893 28 -28 1354 -44 1354 -17
0 17 -190 350 -322 562 -126 205 -178 297 -178 317 0 8 -10 23 -21 34 -24 21
-102 135 -139 202 -13 23 -29 42 -35 42 -6 0 -80 -111 -164 -247z" fill-rule="evenodd"/></g>
<g transform="translate(0.000000,2142.000000) scale(0.100000,-0.100000)" fill="#132C5D"><path d="M 12858.0,16090.0 C 12354.0,16086.0 12269.0,16083.0 12256.0,16070.0 C 12248.0,16062.0 12219.0,15976.0 12190.0,15880.0 C 12162.0,15784.0 12092.0,15554.0 12035.0,15370.0 C 11978.0,15186.0 11906.0,14950.0 11875.0,14845.0 C 11843.0,14741.0 11804.0,14622.0 11788.0,14582.0 C 11753.0,14497.0 11756.0,14488.0 11828.0,14471.0 C 11937.0,14445.0 12245.0,14440.0 14650.0,14430.0 L 17175.0,14418.0 L 17259.0,14362.0 C 17418.0,14256.0 17488.0,14159.0 17512.0,14015.0 C 17534.0,13882.0 17485.0,13634.0 17414.0,13522.0 C 17317.0,13370.0 17115.0,13154.0 17057.0,13143.0 C 17042.0,13140.0 17022.0,13127.0 17014.0,13115.0 C 16980.0,13063.0 16701.0,12967.0 16529.0,12949.0 C 16444.0,12940.0 15770.0,12936.0 13873.0,12933.0 C 11918.0,12930.0 11329.0,12926.0 11322.0,12917.0 C 11317.0,12910.0 11305.0,12874.0 11297.0,12835.0 C 11282.0,12769.0 11244.0,12639.0 11037.0,11935.0 C 10990.0,11776.0 10834.0,11254.0 10690.0,10777.0 C 10546.0,10299.0 10422.0,9875.0 10415.0,9834.0 C 10407.0,9794.0 10389.0,9733.0 10376.0,9699.0 C 10343.0,9619.0 10150.0,8989.0 10150.0,8963.0 C 10150.0,8951.0 10158.0,8939.0 10168.0,8935.0 C 10199.0,8923.0 10975.0,8909.0 11475.0,8912.0 L 11965.0,8915.0 L 11998.0,9040.0 C 12016.0,9109.0 12078.0,9323.0 12136.0,9515.0 C 12194.0,9708.0 12264.0,9942.0 12291.0,10035.0 C 12319.0,10129.0 12361.0,10268.0 12385.0,10345.0 C 12450.0,10551.0 12588.0,11010.0 12621.0,11128.0 C 12636.0,11185.0 12654.0,11238.0 12661.0,11246.0 C 12711.0,11306.0 13326.0,11326.0 13843.0,11283.0 L 13921.0,11277.0 L 14163.0,10927.0 C 14296.0,10735.0 14436.0,10538.0 14473.0,10491.0 C 14511.0,10444.0 14548.0,10390.0 14556.0,10370.0 C 14564.0,10351.0 14582.0,10324.0 14594.0,10310.0 C 14623.0,10279.0 14745.0,10111.0 14898.0,9891.0 C 14961.0,9800.0 15080.0,9634.0 15162.0,9522.0 C 15244.0,9410.0 15359.0,9250.0 15418.0,9166.0 C 15477.0,9081.0 15564.0,8961.0 15611.0,8899.0 C 15658.0,8836.0 15761.0,8693.0 15839.0,8580.0 C 15918.0,8467.0 15988.0,8375.0 15997.0,8375.0 C 16011.0,8375.0 16095.0,8595.0 16311.0,9200.0 C 16433.0,9540.0 16576.0,9806.0 16754.0,10020.0 C 16849.0,10135.0 16859.0,10155.0 16839.0,10202.0 C 16813.0,10264.0 16508.0,10711.0 16301.0,10989.0 C 16118.0,11236.0 16075.0,11300.0 16094.0,11300.0 C 16167.0,11300.0 16803.0,11400.0 16922.0,11431.0 C 17221.0,11507.0 17697.0,11702.0 17808.0,11794.0 C 17823.0,11807.0 17847.0,11820.0 17861.0,11823.0 C 17875.0,11827.0 17954.0,11880.0 18036.0,11941.0 C 18672.0,12417.0 18968.0,12827.0 19223.0,13591.0 C 19320.0,13878.0 19334.0,13980.0 19334.0,14385.0 C 19335.0,14630.0 19332.0,14665.0 19312.0,14760.0 C 19244.0,15068.0 19107.0,15302.0 18830.0,15581.0 C 18642.0,15771.0 18482.0,15862.0 18144.0,15974.0 C 17837.0,16075.0 17814.0,16079.0 17455.0,16090.0 C 17125.0,16100.0 13899.0,16100.0 12858.0,16090.0 M 3195.0,5358.0 C 3167.0,5274.0 3133.0,2782.0 3159.0,2765.0 C 3175.0,2756.0 3742.0,2778.0 3752.0,2788.0 C 3758.0,2794.0 3768.0,3218.0 3777.0,3831.0 C 3785.0,4400.0 3795.0,4868.0 3799.0,4873.0 C 3803.0,4877.0 4216.0,4881.0 4716.0,4883.0 C 5536.0,4885.0 5632.0,4883.0 5696.0,4868.0 C 5921.0,4816.0 6029.0,4658.0 6018.0,4401.0 C 6012.0,4257.0 5936.0,4135.0 5811.0,4066.0 C 5740.0,4028.0 5588.0,4020.0 4873.0,4020.0 C 4536.0,4020.0 4280.0,4016.0 4280.0,4011.0 C 4280.0,4006.0 4322.0,3971.0 4373.0,3934.0 C 4423.0,3896.0 4520.0,3819.0 4588.0,3763.0 C 4656.0,3706.0 4717.0,3660.0 4723.0,3660.0 C 4730.0,3660.0 4776.0,3625.0 4825.0,3583.0 C 4875.0,3541.0 4977.0,3460.0 5053.0,3402.0 C 5201.0,3291.0 5311.0,3205.0 5479.0,3071.0 C 5595.0,2979.0 5786.0,2848.0 5870.0,2804.0 L 5925.0,2775.0 L 6230.0,2777.0 C 6530.0,2779.0 6676.0,2791.0 6674.0,2815.0 C 6674.0,2821.0 6585.0,2890.0 6478.0,2970.0 C 6370.0,3050.0 6219.0,3162.0 6142.0,3220.0 C 6065.0,3278.0 5965.0,3352.0 5920.0,3385.0 C 5815.0,3461.0 5748.0,3526.0 5752.0,3547.0 C 5754.0,3559.0 5774.0,3567.0 5827.0,3576.0 C 5981.0,3602.0 6204.0,3698.0 6312.0,3785.0 C 6436.0,3885.0 6549.0,4072.0 6596.0,4258.0 C 6696.0,4643.0 6495.0,5069.0 6120.0,5269.0 C 5998.0,5334.0 5959.0,5339.0 5495.0,5349.0 C 4726.0,5367.0 3200.0,5373.0 3195.0,5358.0 M 8767.0,5318.0 C 8721.0,5246.0 8479.0,4851.0 8396.0,4713.0 C 8359.0,4651.0 8316.0,4571.0 8299.0,4535.0 C 8282.0,4498.0 8264.0,4470.0 8255.0,4470.0 C 8247.0,4470.0 8228.0,4443.0 8212.0,4408.0 C 8196.0,4373.0 8129.0,4257.0 8063.0,4150.0 C 7997.0,4043.0 7932.0,3935.0 7920.0,3910.0 C 7907.0,3885.0 7850.0,3789.0 7792.0,3695.0 C 7734.0,3602.0 7676.0,3501.0 7663.0,3473.0 C 7649.0,3444.0 7632.0,3420.0 7625.0,3420.0 C 7618.0,3420.0 7594.0,3383.0 7572.0,3338.0 C 7549.0,3292.0 7488.0,3186.0 7435.0,3101.0 C 7278.0,2850.0 7266.0,2819.0 7321.0,2793.0 C 7387.0,2761.0 7699.0,2754.0 7844.0,2781.0 C 7907.0,2793.0 7924.0,2809.0 7964.0,2895.0 C 7982.0,2933.0 8033.0,3024.0 8077.0,3096.0 C 8121.0,3167.0 8171.0,3253.0 8188.0,3287.0 C 8204.0,3320.0 8245.0,3387.0 8277.0,3436.0 C 8310.0,3485.0 8351.0,3552.0 8368.0,3585.0 C 8384.0,3618.0 8443.0,3721.0 8498.0,3813.0 C 8553.0,3905.0 8602.0,3994.0 8605.0,4011.0 C 8609.0,4029.0 8621.0,4045.0 8633.0,4049.0 C 8646.0,4054.0 8670.0,4086.0 8691.0,4126.0 C 8735.0,4211.0 8913.0,4506.0 8987.0,4617.0 C 9046.0,4708.0 9076.0,4726.0 9110.0,4695.0 C 9142.0,4666.0 9321.0,4373.0 9650.0,3810.0 C 10161.0,2936.0 10232.0,2816.0 10249.0,2796.0 C 10264.0,2778.0 10281.0,2778.0 10558.0,2782.0 C 10745.0,2785.0 10855.0,2791.0 10862.0,2798.0 C 10869.0,2805.0 10869.0,2818.0 10861.0,2842.0 C 10845.0,2891.0 10597.0,3329.0 10561.0,3372.0 C 10544.0,3392.0 10530.0,3416.0 10530.0,3425.0 C 10530.0,3450.0 10511.0,3480.0 10495.0,3480.0 C 10488.0,3480.0 10463.0,3517.0 10439.0,3563.0 C 10416.0,3608.0 10297.0,3812.0 10175.0,4015.0 C 9804.0,4631.0 9510.0,5130.0 9458.0,5230.0 C 9431.0,5282.0 9400.0,5331.0 9390.0,5338.0 C 9366.0,5355.0 9177.0,5369.0 8968.0,5370.0 L 8801.0,5370.0 L 8767.0,5318.0 M 11407.0,5363.0 C 11396.0,5345.0 11418.0,2798.0 11430.0,2786.0 C 11446.0,2770.0 11752.0,2767.0 11885.0,2782.0 L 11995.0,2795.0 L 11995.0,4080.0 L 11995.0,5365.0 L 11703.0,5368.0 C 11543.0,5369.0 11409.0,5367.0 11407.0,5363.0 M 12695.0,5358.0 C 12692.0,5351.0 12691.0,4765.0 12692.0,4055.0 L 12695.0,2765.0 L 12975.0,2765.0 L 13255.0,2765.0 L 13261.0,3655.0 C 13264.0,4145.0 13268.0,4546.0 13268.0,4548.0 C 13289.0,4580.0 13418.0,4478.0 13930.0,4020.0 C 14136.0,3836.0 14386.0,3613.0 14485.0,3525.0 C 14584.0,3437.0 14769.0,3270.0 14897.0,3153.0 C 15315.0,2772.0 15324.0,2768.0 15665.0,2766.0 L 15865.0,2765.0 L 15865.0,4065.0 L 15865.0,5365.0 L 15570.0,5365.0 L 15275.0,5365.0 L 15270.0,4472.0 C 15267.0,3982.0 15262.0,3579.0 15259.0,3577.0 C 15250.0,3574.0 15048.0,3745.0 14904.0,3878.0 C 14840.0,3937.0 14678.0,4082.0 14545.0,4200.0 C 14067.0,4623.0 13484.0,5146.0 13403.0,5223.0 C 13299.0,5322.0 13245.0,5347.0 13114.0,5360.0 C 12964.0,5374.0 12700.0,5373.0 12695.0,5358.0 M 16444.0,5357.0 C 16442.0,5350.0 16441.0,5243.0 16442.0,5120.0 L 16445.0,4895.0 L 17650.0,4888.0 C 18854.0,4882.0 18945.0,4879.0 18992.0,4848.0 C 19064.0,4800.0 19130.0,4679.0 19130.0,4594.0 C 19130.0,4510.0 19086.0,4449.0 18968.0,4368.0 L 18905.0,4325.0 L 17675.0,4320.0 L 16445.0,4315.0 L 16446.0,3615.0 C 16447.0,2930.0 16452.0,2814.0 16480.0,2786.0 C 16510.0,2756.0 18744.0,2759.0 19080.0,2790.0 C 19436.0,2823.0 19642.0,2935.0 19749.0,3152.0 C 19806.0,3266.0 19823.0,3354.0 19823.0,3525.0 C 19823.0,3811.0 19776.0,3911.0 19552.0,4098.0 C 19523.0,4122.0 19500.0,4150.0 19500.0,4160.0 C 19500.0,4170.0 19538.0,4235.0 19584.0,4304.0 C 19685.0,4455.0 19690.0,4472.0 19690.0,4698.0 C 19690.0,4952.0 19668.0,5014.0 19525.0,5155.0 C 19471.0,5209.0 19412.0,5254.0 19346.0,5293.0 L 19248.0,5350.0 L 17967.0,5360.0 C 16323.0,5372.0 16450.0,5373.0 16444.0,5357.0 M 18930.0,3851.0 C 19137.0,3824.0 19219.0,3748.0 19228.0,3577.0 C 19234.0,3462.0 19220.0,3418.0 19156.0,3355.0 C 19099.0,3298.0 19054.0,3278.0 18935.0,3259.0 C 18841.0,3244.0 18040.0,3237.0 17490.0,3247.0 L 17055.0,3255.0 L 17052.0,3538.0 C 17050.0,3759.0 17052.0,3821.0 17062.0,3825.0 C 17117.0,3844.0 18801.0,3868.0 18930.0,3851.0 M 24325.0,5361.0 C 24198.0,5351.0 24200.0,5358.0 24279.0,5179.0 C 24356.0,5003.0 25235.0,3149.0 25373.0,2870.0 C 25425.0,2766.0 25428.0,2765.0 25653.0,2765.0 C 25958.0,2765.0 25989.0,2783.0 26119.0,3040.0 C 26318.0,3431.0 26423.0,3613.0 26448.0,3608.0 C 26476.0,3602.0 26517.0,3536.0 26645.0,3295.0 C 26842.0,2924.0 26905.0,2823.0 26960.0,2795.0 C 27064.0,2741.0 27463.0,2758.0 27511.0,2818.0 C 27536.0,2850.0 27731.0,3237.0 27985.0,3760.0 C 28088.0,3972.0 28305.0,4414.0 28467.0,4743.0 C 28678.0,5169.0 28760.0,5344.0 28752.0,5352.0 C 28745.0,5359.0 28640.0,5363.0 28440.0,5364.0 L 28138.0,5365.0 L 27998.0,5070.0 C 27600.0,4234.0 27281.0,3570.0 27257.0,3533.0 C 27205.0,3450.0 27196.0,3461.0 26986.0,3880.0 C 26831.0,4189.0 26800.0,4262.0 26800.0,4323.0 C 26800.0,4388.0 26850.0,4532.0 26905.0,4625.0 C 26972.0,4736.0 27260.0,5306.0 27260.0,5325.0 C 27260.0,5333.0 27248.0,5345.0 27234.0,5350.0 C 27207.0,5361.0 26809.0,5362.0 26696.0,5351.0 L 26627.0,5345.0 L 26577.0,5255.0 C 26437.0,5000.0 26433.0,5000.0 26326.0,5213.0 L 26248.0,5370.0 L 26015.0,5370.0 C 25743.0,5370.0 25600.0,5362.0 25594.0,5345.0 C 25591.0,5339.0 25611.0,5296.0 25638.0,5249.0 C 25726.0,5095.0 26028.0,4506.0 26061.0,4425.0 C 26122.0,4271.0 26123.0,4274.0 25897.0,3820.0 C 25699.0,3422.0 25716.0,3434.0 25620.0,3625.0 C 25584.0,3697.0 25490.0,3897.0 25411.0,4070.0 C 25332.0,4243.0 25189.0,4552.0 25093.0,4755.0 C 24997.0,4959.0 24895.0,5175.0 24867.0,5235.0 C 24839.0,5296.0 24812.0,5351.0 24807.0,5358.0 C 24797.0,5371.0 24483.0,5373.0 24325.0,5361.0 M 21230.0,5350.0 C 20997.0,5345.0 20958.0,5341.0 20910.0,5323.0 C 20680.0,5237.0 20522.0,5090.0 20382.0,4829.0 L 20330.0,4733.0 L 20330.0,4067.0 L 20330.0,3401.0 L 20400.0,3283.0 C 20592.0,2957.0 20765.0,2841.0 21125.0,2794.0 C 21378.0,2761.0 22832.0,2766.0 23150.0,2801.0 C 23366.0,2824.0 23484.0,2870.0 23617.0,2980.0 C 23850.0,3173.0 23934.0,3383.0 23961.0,3832.0 C 23987.0,4262.0 23934.0,4688.0 23827.0,4913.0 C 23767.0,5039.0 23719.0,5095.0 23587.0,5194.0 C 23454.0,5294.0 23408.0,5317.0 23308.0,5331.0 C 23173.0,5350.0 21775.0,5363.0 21230.0,5350.0 M 22944.0,4880.0 C 23094.0,4869.0 23128.0,4856.0 23217.0,4775.0 C 23370.0,4637.0 23415.0,4426.0 23391.0,3960.0 C 23369.0,3522.0 23345.0,3459.0 23149.0,3319.0 L 23050.0,3248.0 L 22173.0,3253.0 C 21205.0,3258.0 21222.0,3257.0 21115.0,3321.0 C 21043.0,3364.0 20954.0,3443.0 20933.0,3484.0 C 20893.0,3561.0 20887.0,3614.0 20883.0,3983.0 C 20875.0,4608.0 20896.0,4681.0 21124.0,4830.0 L 21215.0,4890.0 L 22015.0,4890.0 C 22455.0,4890.0 22873.0,4885.0 22944.0,4880.0 M 4873.5,1309.0 C 4623.5,1302.0 4568.5,1296.0 4568.5,1275.0 C 4568.5,1251.0 4601.5,1248.0 4933.5,1238.0 C 5282.5,1227.0 6660.5,1235.0 6761.5,1249.0 C 6830.5,1258.0 6850.5,1273.0 6817.5,1290.0 C 6770.5,1316.0 5517.5,1328.0 4873.5,1309.0 M 25392.6,1309.0 C 25263.6,1306.0 25142.6,1299.0 25125.6,1295.0 C 25089.6,1287.0 25082.6,1266.0 25110.6,1255.0 C 25186.6,1224.0 27248.6,1224.0 27325.6,1255.0 C 27351.6,1266.0 27345.6,1287.0 27315.6,1294.0 C 27221.6,1316.0 25947.6,1326.0 25392.6,1309.0" fill-rule="evenodd"/></g>
</svg>